<?xml version="1.0" standalone="no"?>
<!DOCTYPE svg PUBLIC "-//W3C//DTD SVG 20010904//EN"
 "http://www.w3.org/TR/2001/REC-SVG-20010904/DTD/svg10.dtd">
<svg version="1.0" xmlns="http://www.w3.org/2000/svg"
 width="160.000000pt" height="160.000000pt" viewBox="0 0 160.000000 160.000000"
 preserveAspectRatio="xMidYMid meet">
<metadata>
Created by potrace 1.11, written by Peter Selinger 2001-2013
</metadata>
<g transform="translate(0.000000,160.000000) scale(0.100000,-0.100000)"
fill="#000000" stroke="none">
<path d="M216 1178 c4 -7 -35 -13 -58 -9 -5 0 -8 -143 -8 -319 0 -313 0 -320
20 -320 11 0 20 -6 20 -12 0 -9 4 -8 10 2 8 12 10 12 10 1 0 -9 9 -12 30 -9
17 3 30 1 30 -4 0 -5 5 -6 10 -3 6 4 53 7 105 8 58 0 91 5 88 11 -4 5 1 7 10
3 9 -3 19 -2 22 4 4 5 10 7 15 4 5 -3 11 -1 15 5 4 6 11 8 16 5 5 -4 9 -1 9 4
0 6 4 10 8 9 14 -5 82 46 82 61 0 11 3 11 15 1 9 -7 14 -19 11 -27 -3 -7 -1
-13 4 -13 6 0 10 9 10 20 0 11 -6 20 -12 20 -10 0 -9 3 1 9 7 5 10 14 7 20 -4
6 -2 11 4 11 6 0 9 4 5 9 -3 5 -1 12 5 16 5 3 10 17 10 31 0 13 4 24 8 24 10
0 10 0 13 95 2 71 -18 175 -33 175 -5 0 -7 4 -4 8 5 8 -25 53 -49 74 -41 36
-59 47 -66 42 -5 -3 -9 0 -9 5 0 6 -9 11 -20 11 -11 0 -20 4 -20 8 0 4 -17 9
-37 10 -21 2 -39 7 -41 12 -2 6 -8 10 -13 10 -6 0 -7 -6 -3 -12 6 -10 4 -10
-7 0 -14 13 -174 18 -165 4 2 -4 -5 -9 -17 -9 -17 -2 -18 0 -7 7 11 7 10 9 -7
7 -12 0 -19 -5 -17 -9z m134 -118 c0 -4 7 -7 15 -7 8 0 11 5 8 10 -4 7 1 8 13
3 10 -4 33 -10 49 -13 17 -3 39 -11 50 -17 11 -5 23 -10 27 -11 10 0 51 -55
41 -55 -4 0 -2 -4 5 -9 11 -6 18 -30 21 -74 1 -5 7 -5 14 -1 9 6 9 4 -1 -8 -9
-12 -10 -18 -2 -23 8 -5 8 -11 -1 -21 -6 -8 -8 -14 -4 -14 4 0 2 -7 -5 -15 -7
-9 -8 -15 -2 -15 5 0 -1 -23 -15 -50 -14 -28 -29 -48 -34 -44 -5 3 -9 -2 -9
-11 0 -9 -4 -13 -10 -10 -5 3 -10 2 -10 -3 0 -11 -49 -29 -103 -37 -20 -4 -26
-1 -21 8 6 9 4 9 -7 1 -31 -23 -65 -13 -60 19 0 4 -4 7 -10 7 -8 0 -7 6 2 17
12 14 12 17 0 21 -11 4 -11 6 0 13 12 7 12 9 0 9 -11 0 -11 3 0 17 11 13 11
17 2 20 -10 4 -10 10 -2 25 8 16 8 19 -1 13 -9 -6 -9 -2 0 16 10 18 10 24 1
27 -9 3 -9 8 1 20 10 12 10 16 1 19 -10 4 -10 10 -2 25 8 16 8 19 -1 13 -9 -6
-9 -2 0 16 10 18 10 24 1 27 -9 3 -9 8 1 20 10 12 10 16 1 19 -18 6 11 60 31
60 9 0 16 -3 16 -7z"/>
<path d="M1070 1178 c0 -11 -6 -15 -20 -11 -11 3 -20 1 -20 -4 0 -6 -14 -41
-32 -79 -17 -38 -33 -72 -34 -76 -1 -5 -3 -11 -4 -15 -1 -5 -2 -11 -1 -15 0
-5 -3 -8 -8 -8 -8 0 -25 -56 -22 -72 0 -5 -4 -8 -9 -8 -6 0 -10 -9 -10 -19 0
-11 -4 -23 -10 -26 -5 -3 -10 -17 -10 -30 0 -13 -4 -25 -10 -27 -5 -1 -11 -15
-12 -30 -1 -16 -6 -28 -10 -28 -4 0 -8 -9 -8 -19 0 -11 -5 -23 -10 -26 -6 -4
-8 -10 -5 -15 3 -5 1 -11 -5 -15 -6 -4 -8 -10 -5 -15 3 -5 1 -11 -5 -15 -5 -3
-10 -17 -10 -31 0 -13 -4 -24 -8 -24 -11 0 -13 -48 -2 -55 6 -3 10 -1 10 6 0
8 5 7 17 -2 11 -10 14 -10 9 -2 -4 7 -2 13 3 13 6 0 11 -6 11 -12 0 -10 2 -10
8 -1 5 8 13 9 22 3 21 -13 70 19 70 47 0 49 38 107 64 97 9 -4 16 -1 16 6 0 9
8 6 22 -6 12 -10 18 -13 13 -5 -6 11 1 12 39 8 28 -4 46 -2 46 4 0 6 6 7 13 2
6 -4 22 -6 33 -5 24 3 58 -24 48 -39 -3 -5 2 -12 10 -15 9 -3 14 -10 11 -14
-7 -11 11 -58 29 -76 9 -9 17 -10 21 -4 4 7 13 6 27 -1 15 -8 19 -8 14 0 -4 6
-3 11 3 11 5 0 12 -6 14 -12 4 -10 6 -10 6 0 1 10 6 10 22 1 17 -9 20 -8 14 2
-6 9 -3 11 8 6 9 -3 19 -1 23 5 4 6 3 8 -4 4 -9 -6 -29 47 -24 67 1 4 -3 7 -8
7 -6 0 -10 6 -8 13 1 6 -4 22 -11 35 -7 13 -14 31 -16 40 -7 39 -10 47 -18 53
-4 3 -9 14 -11 25 -2 10 -9 31 -15 47 -6 15 -8 27 -4 27 4 0 -2 7 -13 15 -10
8 -16 15 -11 15 4 0 1 14 -8 30 -9 17 -13 30 -9 30 3 0 -1 11 -10 25 -9 13
-16 31 -16 40 0 8 -5 15 -11 15 -5 0 -8 4 -4 9 3 5 1 12 -5 16 -5 3 -10 15
-10 26 0 10 -4 19 -10 19 -5 0 -10 6 -10 13 0 22 -24 64 -42 76 -13 8 -16 8
-12 -2 6 -17 -67 -10 -78 7 -5 7 -8 5 -8 -6z m56 -170 c5 -7 2 -8 -7 -3 -11 6
-12 5 -1 -6 6 -7 12 -21 12 -31 0 -10 4 -18 8 -18 4 0 8 -10 9 -22 1 -11 8
-25 15 -29 7 -5 10 -9 6 -9 -4 0 1 -22 11 -48 11 -27 16 -53 13 -58 -4 -5 -43
-9 -87 -9 -80 0 -94 7 -76 40 3 6 6 12 7 15 1 3 7 21 15 40 7 19 12 39 11 44
-2 5 2 12 7 16 6 3 12 15 15 25 13 62 26 79 42 53z"/>
<path d="M673 556 c0 -8 6 -12 14 -9 7 3 10 9 7 14 -8 14 -21 11 -21 -5z"/>
</g>
</svg>
