<?xml version="1.0" encoding="utf-8"?>
<!-- Generator: Adobe Illustrator 17.1.0, SVG Export Plug-In . SVG Version: 6.00 Build 0)  -->
<!DOCTYPE svg PUBLIC "-//W3C//DTD SVG 1.1//EN" "http://www.w3.org/Graphics/SVG/1.1/DTD/svg11.dtd">
<svg version="1.1" xmlns="http://www.w3.org/2000/svg" xmlns:xlink="http://www.w3.org/1999/xlink" x="0px" y="0px"
	 viewBox="0 0 232 63" style="enable-background:new 0 0 232 63;" xml:space="preserve">
<style type="text/css">
	.st0{fill:#A5A5A5;}
	.st1{fill:#FFFFFF;}
	.st2{fill:#20BDFF;}
</style>
<g id="ИТ_интегратор">
	<g>
		<path class="st0" d="M3.8,46.3H5L2.5,56.6c0.3-0.4,0.7-0.9,1.1-1.4c0.4-0.5,0.9-1.1,1.5-1.8c0.5-0.6,1.1-1.3,1.7-1.9
			c0.6-0.7,1.2-1.3,1.8-1.9s1.2-1.2,1.7-1.8c0.6-0.6,1.1-1.1,1.6-1.5h1.1l-3,12.5H8.7l2.5-10.5c-0.4,0.3-0.8,0.8-1.3,1.3
			c-0.5,0.5-1,1.1-1.6,1.7c-0.6,0.6-1.2,1.3-1.7,2c-0.6,0.7-1.2,1.4-1.7,2c-0.6,0.7-1.1,1.3-1.5,1.9c-0.5,0.6-0.9,1.1-1.2,1.5H0.8
			L3.8,46.3z"/>
		<path class="st0" d="M18.7,47.3h-3.8l0.2-1.1h8.9l-0.3,1.1h-3.8l-2.7,11.4h-1.2L18.7,47.3z"/>
		<path class="st0" d="M30.8,59c-0.5,0-0.9-0.1-1.3-0.2c-0.3-0.1-0.6-0.3-0.8-0.5c-0.2-0.2-0.4-0.5-0.4-0.8c-0.1-0.3-0.1-0.7-0.1-1
			c0-0.3,0-0.7,0.1-1.1s0.1-0.8,0.2-1.2l1.1-4.6h1.2l-1,4.1c-0.1,0.4-0.2,0.9-0.3,1.3c-0.1,0.5-0.2,0.9-0.2,1.3c0,0.2,0,0.5,0.1,0.7
			c0.1,0.2,0.1,0.4,0.3,0.5c0.1,0.2,0.3,0.3,0.5,0.4c0.2,0.1,0.5,0.1,0.8,0.1c0.6,0,1.1-0.1,1.5-0.3c0.4-0.2,0.9-0.6,1.2-1
			c0-0.3,0-0.7,0.1-1.1c0.1-0.4,0.2-0.8,0.3-1.1l1.2-4.9h1.2L35,55.2c-0.1,0.3-0.1,0.6-0.2,0.8c0,0.3-0.1,0.5-0.1,0.8
			c0,0.3,0,0.6,0.1,0.9s0.2,0.6,0.3,1L34,58.9c-0.1-0.1-0.1-0.3-0.2-0.5c-0.1-0.2-0.1-0.4-0.1-0.6c-0.4,0.4-0.9,0.7-1.3,0.9
			C31.9,58.9,31.4,59,30.8,59z"/>
		<path class="st0" d="M39.9,49.5h1.2l-1,4h4.5l1-4h1.2l-2.2,9.3h-1.2l1-4.3h-4.5l-1,4.3h-1.2L39.9,49.5z"/>
		<path class="st0" d="M49.9,49.8c0.2-0.1,0.4-0.1,0.6-0.2c0.2-0.1,0.5-0.1,0.7-0.2s0.5-0.1,0.8-0.1c0.3,0,0.5,0,0.8,0
			c0.5,0,1,0.1,1.4,0.2c0.4,0.1,0.8,0.4,1,0.7c0.6-0.4,1.1-0.6,1.6-0.7c0.5-0.1,0.9-0.2,1.4-0.2c0.4,0,0.8,0,1.1,0.1
			c0.4,0.1,0.7,0.2,0.9,0.5c0.3,0.2,0.5,0.5,0.6,0.9c0.2,0.4,0.2,0.8,0.2,1.4c0,0.3,0,0.6-0.1,1c0,0.3-0.1,0.7-0.2,1l-1.1,4.6h-1.2
			l1-4.1c0.1-0.4,0.2-0.8,0.3-1.2c0.1-0.4,0.1-0.8,0.1-1.2s0-0.7-0.1-0.9c-0.1-0.2-0.2-0.4-0.4-0.6c-0.2-0.1-0.4-0.2-0.6-0.3
			s-0.5-0.1-0.7-0.1c-0.3,0-0.6,0-1,0.1c-0.4,0.1-0.9,0.3-1.4,0.7c0.1,0.3,0.1,0.6,0.1,1c0,0.3,0,0.6-0.1,1s-0.1,0.7-0.2,1l-1.1,4.6
			h-1.2l1-4.1c0.1-0.4,0.2-0.8,0.3-1.2s0.1-0.8,0.1-1.2s0-0.7-0.1-0.9c-0.1-0.2-0.2-0.4-0.4-0.6c-0.2-0.1-0.4-0.2-0.6-0.3
			c-0.2-0.1-0.5-0.1-0.7-0.1c-0.3,0-0.6,0-0.9,0.1c-0.3,0-0.6,0.1-0.9,0.2l-2,8.2h-1.2L49.9,49.8z"/>
		<path class="st0" d="M71.2,51.6c0,0.7-0.2,1.2-0.5,1.6c-0.3,0.4-0.8,0.8-1.4,1c-0.6,0.2-1.3,0.4-2.1,0.5c-0.8,0.1-1.8,0.2-2.8,0.2
			v0.4c0,0.3,0,0.7,0.1,1c0.1,0.3,0.2,0.6,0.4,0.8s0.5,0.4,0.8,0.5c0.3,0.1,0.8,0.2,1.3,0.2c0.4,0,0.8-0.1,1.3-0.2s0.8-0.3,1.2-0.5
			l0.1,1.1c-0.4,0.2-0.9,0.4-1.4,0.5c-0.5,0.1-1,0.2-1.5,0.2c-0.7,0-1.2-0.1-1.7-0.3c-0.4-0.2-0.8-0.4-1.1-0.7
			c-0.3-0.3-0.5-0.7-0.6-1.1c-0.1-0.4-0.2-0.9-0.2-1.4c0-0.8,0.1-1.5,0.4-2.3s0.6-1.4,1-2c0.5-0.6,1-1.1,1.7-1.4s1.4-0.5,2.3-0.5
			c0.8,0,1.5,0.2,1.9,0.7C71,50.3,71.2,50.9,71.2,51.6z M68.5,50.3c-0.5,0-0.9,0.1-1.3,0.3c-0.4,0.2-0.8,0.5-1.1,0.8
			s-0.6,0.7-0.9,1.2c-0.2,0.4-0.4,0.9-0.5,1.4c1,0,1.9-0.1,2.6-0.2c0.7-0.1,1.3-0.3,1.7-0.4c0.4-0.2,0.7-0.4,0.9-0.7
			c0.2-0.3,0.3-0.6,0.3-0.9c0-0.5-0.1-0.8-0.4-1.1C69.3,50.4,68.9,50.3,68.5,50.3z"/>
		<path class="st0" d="M77.6,58.4c-0.4,0.2-0.8,0.3-1.3,0.4S75.3,59,74.9,59c-0.4,0-0.8,0-1.2-0.1c-0.4-0.1-0.7-0.2-1-0.4
			s-0.5-0.4-0.6-0.7c-0.2-0.3-0.2-0.6-0.2-1c0-0.7,0.1-1.2,0.4-1.6c0.3-0.4,0.6-0.7,1-1c0.4-0.3,0.9-0.5,1.4-0.6
			c0.5-0.2,0.9-0.3,1.4-0.5c0.4-0.2,0.8-0.4,1-0.6c0.3-0.2,0.4-0.6,0.4-1c0-0.2,0-0.4-0.1-0.5c-0.1-0.1-0.2-0.3-0.3-0.4
			c-0.1-0.1-0.3-0.2-0.5-0.2s-0.4-0.1-0.6-0.1c-0.2,0-0.4,0-0.6,0c-0.2,0-0.4,0.1-0.6,0.1c-0.2,0.1-0.4,0.1-0.6,0.2
			c-0.2,0.1-0.3,0.1-0.4,0.2l-0.1-1.1c0.3-0.2,0.7-0.3,1.1-0.4s0.8-0.1,1.2-0.1c0.3,0,0.7,0,1,0.1c0.3,0.1,0.6,0.2,0.9,0.4
			c0.2,0.2,0.4,0.4,0.6,0.7c0.1,0.3,0.2,0.6,0.2,1c0,0.6-0.1,1.1-0.4,1.4c-0.3,0.4-0.6,0.6-1,0.9s-0.9,0.4-1.4,0.6s-0.9,0.3-1.3,0.5
			c-0.4,0.2-0.8,0.4-1,0.7c-0.3,0.3-0.4,0.7-0.4,1.1c0,0.2,0.1,0.4,0.2,0.6c0.1,0.2,0.2,0.3,0.4,0.4c0.2,0.1,0.4,0.2,0.6,0.2
			c0.2,0,0.5,0.1,0.7,0.1s0.5,0,0.8,0c0.3,0,0.5-0.1,0.7-0.1s0.4-0.1,0.6-0.2s0.3-0.1,0.4-0.2L77.6,58.4z"/>
		<path class="st0" d="M81.8,49.8c0.5-0.2,1-0.3,1.5-0.4c0.5-0.1,1-0.2,1.5-0.2c2.2,0,3.3,1.1,3.3,3.4c0,0.8-0.1,1.6-0.4,2.3
			s-0.7,1.4-1.2,2s-1.1,1-1.9,1.4c-0.7,0.3-1.6,0.5-2.5,0.5c-0.5,0-0.9-0.1-1.3-0.2L80,62.1h-1.2L81.8,49.8z M81.1,57.7
			c0.4,0.1,0.8,0.2,1.1,0.2c0.7,0,1.4-0.1,2-0.4c0.6-0.3,1.1-0.7,1.5-1.2c0.4-0.5,0.7-1,0.9-1.6c0.2-0.6,0.3-1.2,0.3-1.8
			c0-0.9-0.2-1.6-0.6-2s-1-0.6-1.8-0.6c-0.3,0-0.6,0-0.8,0.1c-0.3,0-0.6,0.1-0.9,0.2L81.1,57.7z"/>
		<path class="st0" d="M95.7,58.9c-0.1-0.1-0.1-0.3-0.2-0.5c-0.1-0.2-0.1-0.4-0.1-0.6c-0.4,0.4-0.9,0.7-1.3,0.9
			c-0.5,0.2-0.9,0.3-1.4,0.3c-0.4,0-0.8-0.1-1.1-0.2c-0.3-0.1-0.7-0.3-0.9-0.6c-0.3-0.3-0.5-0.6-0.6-1.1c-0.2-0.4-0.2-1-0.2-1.6
			c0-1,0.2-1.8,0.5-2.6c0.3-0.8,0.7-1.4,1.3-2s1.2-1,2-1.3c0.8-0.3,1.6-0.5,2.5-0.5c0.7,0,1.5,0.1,2.1,0.4l-1.4,5.6
			c-0.1,0.3-0.1,0.6-0.2,0.8c0,0.3-0.1,0.5-0.1,0.8c0,0.3,0,0.6,0.1,0.9s0.2,0.6,0.3,1L95.7,58.9z M96.7,50.5
			c-0.2,0-0.4-0.1-0.6-0.1c-0.2,0-0.4,0-0.6,0c-0.7,0-1.4,0.1-2,0.4s-1.1,0.7-1.5,1.1c-0.4,0.5-0.7,1-0.9,1.6
			c-0.2,0.6-0.3,1.2-0.3,1.8c0,0.5,0,0.9,0.1,1.2s0.2,0.6,0.4,0.8s0.4,0.3,0.6,0.4c0.2,0.1,0.5,0.1,0.7,0.1c0.5,0,1-0.1,1.4-0.4
			c0.4-0.2,0.8-0.6,1.2-1c0-0.3,0-0.7,0.1-1.1c0.1-0.4,0.2-0.8,0.3-1.1L96.7,50.5z"/>
		<path class="st0" d="M101.5,49.8c0.2-0.1,0.4-0.1,0.6-0.2c0.2-0.1,0.5-0.1,0.7-0.2c0.3,0,0.5-0.1,0.8-0.1c0.3,0,0.5,0,0.8,0
			c0.5,0,1,0.1,1.4,0.2c0.4,0.1,0.8,0.4,1,0.7c0.6-0.4,1.1-0.6,1.6-0.7c0.5-0.1,0.9-0.2,1.4-0.2c0.4,0,0.8,0,1.1,0.1
			c0.4,0.1,0.7,0.2,0.9,0.5c0.3,0.2,0.5,0.5,0.6,0.9s0.2,0.8,0.2,1.4c0,0.3,0,0.6-0.1,1s-0.1,0.7-0.2,1l-1.1,4.6h-1.2l1-4.1
			c0.1-0.4,0.2-0.8,0.3-1.2s0.1-0.8,0.1-1.2s0-0.7-0.1-0.9c-0.1-0.2-0.2-0.4-0.4-0.6c-0.2-0.1-0.4-0.2-0.6-0.3s-0.5-0.1-0.7-0.1
			c-0.3,0-0.6,0-1,0.1c-0.4,0.1-0.9,0.3-1.4,0.7c0.1,0.3,0.1,0.6,0.1,1c0,0.3,0,0.6-0.1,1c0,0.3-0.1,0.7-0.2,1l-1.1,4.6h-1.2l1-4.1
			c0.1-0.4,0.2-0.8,0.3-1.2s0.1-0.8,0.1-1.2s0-0.7-0.1-0.9c-0.1-0.2-0.2-0.4-0.4-0.6c-0.2-0.1-0.4-0.2-0.6-0.3
			c-0.2-0.1-0.5-0.1-0.7-0.1c-0.3,0-0.6,0-0.9,0.1c-0.3,0-0.6,0.1-0.9,0.2l-2,8.2h-1.2L101.5,49.8z"/>
		<path class="st0" d="M123.1,52.4c0,1.1-0.2,2.1-0.5,2.9c-0.3,0.8-0.7,1.5-1.2,2.1c-0.5,0.5-1.1,1-1.7,1.2
			c-0.6,0.3-1.2,0.4-1.8,0.4c-0.4,0-0.8-0.1-1.2-0.2c-0.4-0.1-0.7-0.3-1-0.6c-0.3-0.3-0.5-0.6-0.7-1c-0.2-0.4-0.3-0.8-0.3-1.4
			c0-1.1,0.2-2.1,0.5-2.9c0.3-0.8,0.7-1.5,1.2-2.1s1.1-0.9,1.7-1.2c0.6-0.3,1.2-0.4,1.8-0.4c0.4,0,0.8,0.1,1.2,0.2s0.7,0.3,1,0.6
			s0.5,0.6,0.7,1C123,51.4,123.1,51.9,123.1,52.4z M116,55.8c0,0.7,0.2,1.2,0.6,1.6c0.4,0.4,0.9,0.5,1.4,0.5c0.4,0,0.9-0.1,1.3-0.3
			c0.5-0.2,0.9-0.6,1.3-1c0.4-0.5,0.7-1,0.9-1.7c0.2-0.7,0.4-1.5,0.4-2.4c0-0.7-0.2-1.2-0.6-1.6c-0.4-0.4-0.9-0.5-1.4-0.5
			c-0.4,0-0.9,0.1-1.3,0.3c-0.5,0.2-0.9,0.6-1.3,1c-0.4,0.4-0.7,1-0.9,1.7C116.1,54,116,54.8,116,55.8z"/>
		<path class="st0" d="M126.6,49.8c0.5-0.2,1-0.3,1.5-0.4c0.5-0.1,1-0.2,1.5-0.2c2.2,0,3.3,1.1,3.3,3.4c0,0.8-0.1,1.6-0.4,2.3
			c-0.3,0.8-0.7,1.4-1.2,2c-0.5,0.6-1.1,1-1.9,1.4c-0.7,0.3-1.6,0.5-2.5,0.5c-0.5,0-0.9-0.1-1.3-0.2l-0.8,3.3h-1.2L126.6,49.8z
			 M125.9,57.7c0.4,0.1,0.8,0.2,1.1,0.2c0.7,0,1.4-0.1,2-0.4c0.6-0.3,1.1-0.7,1.5-1.2c0.4-0.5,0.7-1,0.9-1.6
			c0.2-0.6,0.3-1.2,0.3-1.8c0-0.9-0.2-1.6-0.6-2s-1-0.6-1.8-0.6c-0.3,0-0.6,0-0.8,0.1c-0.3,0-0.6,0.1-0.9,0.2L125.9,57.7z"/>
	</g>
</g>
<g id="DataArms">
	<g>
		<path class="st1" d="M30.3,17.1c0,2.9-0.4,5.4-1.3,7.5c-0.9,2.1-2.2,3.9-3.8,5.3c-1.6,1.4-3.7,2.5-6,3.2c-2.4,0.7-5,1.1-8,1.1
			c-1.3,0-2.9-0.1-4.7-0.2c-1.8-0.1-3.6-0.3-5.3-0.7V0.9c1.7-0.3,3.5-0.5,5.4-0.6c1.9-0.1,3.5-0.2,4.8-0.2c2.8,0,5.4,0.3,7.8,1
			c2.3,0.6,4.3,1.6,6,3c1.7,1.4,2.9,3.1,3.8,5.3C29.9,11.5,30.3,14.1,30.3,17.1z M8.7,27.7c0.4,0,0.8,0.1,1.2,0.1c0.5,0,1,0,1.7,0
			c3.7,0,6.5-0.9,8.3-2.8c1.8-1.9,2.7-4.5,2.7-7.8c0-3.5-0.9-6.1-2.6-7.9c-1.7-1.8-4.5-2.7-8.2-2.7c-0.5,0-1,0-1.6,0
			c-0.5,0-1.1,0.1-1.5,0.1V27.7z"/>
		<path class="st1" d="M46.3,7.8c2.1,0,3.9,0.2,5.3,0.7C53,9,54.2,9.7,55,10.6c0.8,0.9,1.4,2,1.8,3.3c0.4,1.3,0.5,2.7,0.5,4.3V33
			c-1,0.2-2.4,0.5-4.3,0.8c-1.8,0.3-4,0.5-6.6,0.5c-1.6,0-3.1-0.1-4.4-0.4c-1.3-0.3-2.5-0.8-3.4-1.4s-1.7-1.5-2.2-2.6
			c-0.5-1.1-0.8-2.4-0.8-3.9c0-1.5,0.3-2.7,0.9-3.7c0.6-1,1.4-1.8,2.4-2.4c1-0.6,2.1-1,3.4-1.3c1.3-0.3,2.6-0.4,4-0.4
			c0.9,0,1.8,0,2.5,0.1c0.7,0.1,1.3,0.2,1.8,0.3v-0.7c0-1.2-0.4-2.2-1.1-2.9c-0.7-0.7-2-1.1-3.8-1.1c-1.2,0-2.4,0.1-3.6,0.3
			c-1.2,0.2-2.2,0.4-3.1,0.7L37.9,9c0.4-0.1,0.9-0.3,1.6-0.4s1.3-0.3,2-0.4C42.3,8.1,43.1,8,43.9,8C44.7,7.9,45.5,7.8,46.3,7.8z
			 M46.9,28.8c0.7,0,1.4,0,2,0c0.6,0,1.2-0.1,1.5-0.1v-5.4c-0.3-0.1-0.7-0.1-1.3-0.2c-0.6-0.1-1.1-0.1-1.6-0.1c-0.7,0-1.3,0-1.9,0.1
			c-0.6,0.1-1.1,0.2-1.6,0.5c-0.4,0.2-0.8,0.5-1.1,0.9c-0.3,0.4-0.4,0.9-0.4,1.4c0,1.1,0.4,1.9,1.1,2.3
			C44.6,28.5,45.6,28.8,46.9,28.8z"/>
		<path class="st1" d="M64.8,2.2l7.2-1.2v7.4h8.6v6h-8.6v8.9c0,1.5,0.3,2.7,0.8,3.6c0.5,0.9,1.6,1.3,3.2,1.3c0.8,0,1.6-0.1,2.4-0.2
			s1.6-0.3,2.2-0.6l1,5.6c-0.9,0.4-1.8,0.7-2.9,0.9c-1.1,0.3-2.4,0.4-3.9,0.4c-2,0-3.6-0.3-4.8-0.8c-1.3-0.5-2.3-1.3-3.1-2.2
			c-0.8-0.9-1.3-2.1-1.6-3.4c-0.3-1.3-0.5-2.8-0.5-4.5V2.2z"/>
		<path class="st1" d="M95.6,7.8c2.1,0,3.9,0.2,5.3,0.7c1.4,0.5,2.5,1.2,3.4,2.1c0.8,0.9,1.4,2,1.8,3.3c0.4,1.3,0.5,2.7,0.5,4.3V33
			c-1,0.2-2.4,0.5-4.3,0.8c-1.8,0.3-4,0.5-6.6,0.5c-1.6,0-3.1-0.1-4.4-0.4c-1.3-0.3-2.5-0.8-3.4-1.4s-1.7-1.5-2.2-2.6
			c-0.5-1.1-0.8-2.4-0.8-3.9c0-1.5,0.3-2.7,0.9-3.7c0.6-1,1.4-1.8,2.4-2.4c1-0.6,2.1-1,3.4-1.3c1.3-0.3,2.6-0.4,4-0.4
			c0.9,0,1.8,0,2.5,0.1c0.7,0.1,1.3,0.2,1.8,0.3v-0.7c0-1.2-0.4-2.2-1.1-2.9c-0.7-0.7-2-1.1-3.8-1.1c-1.2,0-2.4,0.1-3.6,0.3
			c-1.2,0.2-2.2,0.4-3.1,0.7L87.2,9c0.4-0.1,0.9-0.3,1.6-0.4s1.3-0.3,2-0.4C91.6,8.1,92.3,8,93.2,8C94,7.9,94.8,7.8,95.6,7.8z
			 M96.2,28.8c0.7,0,1.4,0,2,0c0.6,0,1.2-0.1,1.5-0.1v-5.4C99.5,23.1,99,23,98.5,23c-0.6-0.1-1.1-0.1-1.6-0.1c-0.7,0-1.3,0-1.9,0.1
			c-0.6,0.1-1.1,0.2-1.6,0.5c-0.4,0.2-0.8,0.5-1.1,0.9c-0.3,0.4-0.4,0.9-0.4,1.4c0,1.1,0.4,1.9,1.1,2.3
			C93.9,28.5,94.9,28.8,96.2,28.8z"/>
		<path class="st2" d="M137.1,33.8c-0.4-1.2-0.8-2.3-1.2-3.6c-0.4-1.2-0.9-2.4-1.3-3.6h-13c-0.4,1.2-0.8,2.4-1.3,3.6
			c-0.4,1.2-0.8,2.4-1.2,3.6h-7.8c1.3-3.6,2.4-6.9,3.6-9.9c1.1-3,2.2-5.9,3.3-8.6c1.1-2.7,2.1-5.2,3.2-7.7c1-2.4,2.1-4.8,3.3-7.1
			h7.1c1.1,2.3,2.2,4.7,3.2,7.1c1.1,2.4,2.1,5,3.2,7.7s2.2,5.6,3.3,8.6c1.1,3,2.3,6.4,3.6,9.9H137.1z M128.1,8
			c-0.2,0.5-0.4,1.1-0.7,2c-0.3,0.8-0.7,1.8-1.1,2.9c-0.4,1.1-0.9,2.3-1.4,3.6c-0.5,1.3-1,2.7-1.5,4.1h9.5c-0.5-1.4-1-2.8-1.5-4.1
			c-0.5-1.3-0.9-2.5-1.4-3.6c-0.4-1.1-0.8-2-1.1-2.9C128.6,9.2,128.3,8.5,128.1,8z"/>
		<path class="st2" d="M165.3,14.8c-0.6-0.2-1.4-0.3-2.3-0.5c-0.9-0.2-1.8-0.3-2.8-0.3c-0.4,0-1,0-1.6,0.1c-0.6,0.1-1.1,0.2-1.4,0.3
			v19.3h-7.2V9.9c1.3-0.4,2.8-0.9,4.5-1.3c1.7-0.4,3.7-0.6,5.8-0.6c0.4,0,0.8,0,1.4,0.1c0.5,0,1.1,0.1,1.6,0.2
			c0.5,0.1,1.1,0.2,1.6,0.3c0.5,0.1,1,0.2,1.4,0.4L165.3,14.8z"/>
		<path class="st2" d="M185.4,20.4c0-2.3-0.3-3.9-0.9-4.9c-0.6-1-1.6-1.4-3-1.4c-0.4,0-0.9,0-1.4,0.1c-0.5,0-0.9,0.1-1.4,0.2v19.5
			h-7.2V9.4c0.6-0.2,1.3-0.3,2.1-0.5c0.8-0.2,1.7-0.3,2.6-0.5s1.8-0.3,2.8-0.3c1-0.1,1.9-0.1,2.8-0.1c1.8,0,3.3,0.2,4.4,0.7
			c1.1,0.5,2.1,1,2.8,1.7c1-0.7,2.2-1.3,3.5-1.7c1.3-0.4,2.6-0.6,3.7-0.6c2,0,3.7,0.3,5,0.8c1.3,0.6,2.3,1.4,3.1,2.4
			c0.8,1,1.3,2.2,1.6,3.6c0.3,1.4,0.4,3,0.4,4.7v14.3h-7.2V20.4c0-2.3-0.3-3.9-0.9-4.9c-0.6-1-1.6-1.4-3-1.4c-0.4,0-0.9,0.1-1.6,0.3
			s-1.3,0.4-1.7,0.7c0.2,0.7,0.4,1.5,0.4,2.3c0.1,0.8,0.1,1.7,0.1,2.6v13.8h-7.2V20.4z"/>
		<path class="st2" d="M221.4,28.6c1.3,0,2.2-0.1,2.8-0.4c0.5-0.3,0.8-0.8,0.8-1.5c0-0.6-0.4-1.1-1.1-1.5s-1.8-0.9-3.2-1.5
			c-1.1-0.4-2.1-0.8-3-1.3c-0.9-0.4-1.7-1-2.3-1.6c-0.6-0.6-1.1-1.4-1.5-2.2c-0.4-0.9-0.5-1.9-0.5-3.1c0-2.4,0.9-4.2,2.6-5.6
			c1.8-1.4,4.2-2.1,7.2-2.1c1.5,0,3,0.1,4.4,0.4c1.4,0.3,2.5,0.6,3.4,0.9l-1.2,5.6c-0.8-0.3-1.7-0.5-2.7-0.8c-1-0.2-2.1-0.3-3.3-0.3
			c-2.2,0-3.4,0.6-3.4,1.9c0,0.3,0,0.5,0.1,0.8c0.1,0.2,0.3,0.4,0.6,0.6c0.3,0.2,0.7,0.4,1.2,0.7c0.5,0.2,1.1,0.5,1.9,0.8
			c1.6,0.6,2.9,1.2,3.9,1.7c1,0.6,1.8,1.2,2.4,1.8c0.6,0.7,1,1.4,1.2,2.2c0.2,0.8,0.4,1.7,0.4,2.8c0,2.5-0.9,4.4-2.8,5.7
			s-4.5,1.9-7.9,1.9c-2.2,0-4.1-0.2-5.6-0.6c-1.5-0.4-2.5-0.7-3.1-1l1.2-5.8c1.2,0.5,2.5,0.9,3.7,1.1
			C218.9,28.5,220.1,28.6,221.4,28.6z"/>
	</g>
</g>
</svg>
