<?xml version="1.0" encoding="utf-8"?>
<!-- Generator: Adobe Illustrator 21.0.0, SVG Export Plug-In . SVG Version: 6.00 Build 0)  -->
<svg version="1.1" id="Слой_1" xmlns="http://www.w3.org/2000/svg" xmlns:xlink="http://www.w3.org/1999/xlink" x="0px" y="0px"
	 viewBox="0 0 232 33.8" style="enable-background:new 0 0 232 33.8;" xml:space="preserve">
<style type="text/css">
	.st0{fill:#FFFFFF;}
	.st1{fill:#20BDFF;}
</style>
<g id="DataArms">
	<g>
		<path class="st0" d="M30.3,17.1c0,2.9-0.4,5.4-1.3,7.5s-2.2,3.9-3.8,5.3c-1.6,1.4-3.7,2.5-6,3.2c-2.4,0.7-5,1.1-8,1.1
			c-1.3,0-2.9-0.1-4.7-0.2c-1.8-0.1-3.6-0.3-5.3-0.7V0.9c1.7-0.3,3.5-0.5,5.4-0.6s3.5-0.2,4.8-0.2c2.8,0,5.4,0.3,7.8,1
			c2.3,0.6,4.3,1.6,6,3s2.9,3.1,3.8,5.3C29.9,11.5,30.3,14.1,30.3,17.1z M8.7,27.7c0.4,0,0.8,0.1,1.2,0.1c0.5,0,1,0,1.7,0
			c3.7,0,6.5-0.9,8.3-2.8c1.8-1.9,2.7-4.5,2.7-7.8c0-3.5-0.9-6.1-2.6-7.9s-4.5-2.7-8.2-2.7c-0.5,0-1,0-1.6,0c-0.5,0-1.1,0.1-1.5,0.1
			V27.7z"/>
		<path class="st0" d="M46.3,7.8c2.1,0,3.9,0.2,5.3,0.7C53,9,54.2,9.7,55,10.6c0.8,0.9,1.4,2,1.8,3.3c0.4,1.3,0.5,2.7,0.5,4.3V33
			c-1,0.2-2.4,0.5-4.3,0.8c-1.8,0.3-4,0.5-6.6,0.5c-1.6,0-3.1-0.1-4.4-0.4c-1.3-0.3-2.5-0.8-3.4-1.4s-1.7-1.5-2.2-2.6
			s-0.8-2.4-0.8-3.9s0.3-2.7,0.9-3.7c0.6-1,1.4-1.8,2.4-2.4s2.1-1,3.4-1.3c1.3-0.3,2.6-0.4,4-0.4c0.9,0,1.8,0,2.5,0.1
			s1.3,0.2,1.8,0.3v-0.7c0-1.2-0.4-2.2-1.1-2.9c-0.7-0.7-2-1.1-3.8-1.1c-1.2,0-2.4,0.1-3.6,0.3c-1.2,0.2-2.2,0.4-3.1,0.7L37.9,9
			c0.4-0.1,0.9-0.3,1.6-0.4s1.3-0.3,2-0.4C42.3,8.1,43.1,8,43.9,8C44.7,7.9,45.5,7.8,46.3,7.8z M46.9,28.8c0.7,0,1.4,0,2,0
			s1.2-0.1,1.5-0.1v-5.4c-0.3-0.1-0.7-0.1-1.3-0.2S48,23,47.5,23c-0.7,0-1.3,0-1.9,0.1c-0.6,0.1-1.1,0.2-1.6,0.5
			c-0.4,0.2-0.8,0.5-1.1,0.9s-0.4,0.9-0.4,1.4c0,1.1,0.4,1.9,1.1,2.3C44.6,28.5,45.6,28.8,46.9,28.8z"/>
		<path class="st0" d="M64.8,2.2L72,1v7.4h8.6v6H72v8.9c0,1.5,0.3,2.7,0.8,3.6s1.6,1.3,3.2,1.3c0.8,0,1.6-0.1,2.4-0.2
			s1.6-0.3,2.2-0.6l1,5.6c-0.9,0.4-1.8,0.7-2.9,0.9c-1.1,0.3-2.4,0.4-3.9,0.4c-2,0-3.6-0.3-4.8-0.8c-1.3-0.5-2.3-1.3-3.1-2.2
			c-0.8-0.9-1.3-2.1-1.6-3.4c-0.3-1.3-0.5-2.8-0.5-4.5C64.8,23.4,64.8,2.2,64.8,2.2z"/>
		<path class="st0" d="M95.6,7.8c2.1,0,3.9,0.2,5.3,0.7s2.5,1.2,3.4,2.1c0.8,0.9,1.4,2,1.8,3.3s0.5,2.7,0.5,4.3V33
			c-1,0.2-2.4,0.5-4.3,0.8c-1.8,0.3-4,0.5-6.6,0.5c-1.6,0-3.1-0.1-4.4-0.4c-1.3-0.3-2.5-0.8-3.4-1.4s-1.7-1.5-2.2-2.6
			s-0.8-2.4-0.8-3.9s0.3-2.7,0.9-3.7s1.4-1.8,2.4-2.4s2.1-1,3.4-1.3s2.6-0.4,4-0.4c0.9,0,1.8,0,2.5,0.1s1.3,0.2,1.8,0.3v-0.7
			c0-1.2-0.4-2.2-1.1-2.9s-2-1.1-3.8-1.1c-1.2,0-2.4,0.1-3.6,0.3s-2.2,0.4-3.1,0.7L87.2,9c0.4-0.1,0.9-0.3,1.6-0.4s1.3-0.3,2-0.4
			C91.6,8.1,92.3,8,93.2,8C94,7.9,94.8,7.8,95.6,7.8z M96.2,28.8c0.7,0,1.4,0,2,0s1.2-0.1,1.5-0.1v-5.4C99.5,23.1,99,23,98.5,23
			c-0.6-0.1-1.1-0.1-1.6-0.1c-0.7,0-1.3,0-1.9,0.1s-1.1,0.2-1.6,0.5c-0.4,0.2-0.8,0.5-1.1,0.9c-0.3,0.4-0.4,0.9-0.4,1.4
			c0,1.1,0.4,1.9,1.1,2.3C93.9,28.5,94.9,28.8,96.2,28.8z"/>
		<path class="st1" d="M137.1,33.8c-0.4-1.2-0.8-2.3-1.2-3.6c-0.4-1.2-0.9-2.4-1.3-3.6h-13c-0.4,1.2-0.8,2.4-1.3,3.6
			c-0.4,1.2-0.8,2.4-1.2,3.6h-7.8c1.3-3.6,2.4-6.9,3.6-9.9c1.1-3,2.2-5.9,3.3-8.6c1.1-2.7,2.1-5.2,3.2-7.7c1-2.4,2.1-4.8,3.3-7.1
			h7.1c1.1,2.3,2.2,4.7,3.2,7.1c1.1,2.4,2.1,5,3.2,7.7s2.2,5.6,3.3,8.6s2.3,6.4,3.6,9.9H137.1z M128.1,8c-0.2,0.5-0.4,1.1-0.7,2
			c-0.3,0.8-0.7,1.8-1.1,2.9s-0.9,2.3-1.4,3.6s-1,2.7-1.5,4.1h9.5c-0.5-1.4-1-2.8-1.5-4.1s-0.9-2.5-1.4-3.6c-0.4-1.1-0.8-2-1.1-2.9
			C128.6,9.2,128.3,8.5,128.1,8z"/>
		<path class="st1" d="M165.3,14.8c-0.6-0.2-1.4-0.3-2.3-0.5c-0.9-0.2-1.8-0.3-2.8-0.3c-0.4,0-1,0-1.6,0.1s-1.1,0.2-1.4,0.3v19.3
			H150V9.9c1.3-0.4,2.8-0.9,4.5-1.3c1.7-0.4,3.7-0.6,5.8-0.6c0.4,0,0.8,0,1.4,0.1c0.5,0,1.1,0.1,1.6,0.2c0.5,0.1,1.1,0.2,1.6,0.3
			s1,0.2,1.4,0.4L165.3,14.8z"/>
		<path class="st1" d="M185.4,20.4c0-2.3-0.3-3.9-0.9-4.9c-0.6-1-1.6-1.4-3-1.4c-0.4,0-0.9,0-1.4,0.1c-0.5,0-0.9,0.1-1.4,0.2v19.5
			h-7.2V9.4c0.6-0.2,1.3-0.3,2.1-0.5s1.7-0.3,2.6-0.5s1.8-0.3,2.8-0.3c1-0.1,1.9-0.1,2.8-0.1c1.8,0,3.3,0.2,4.4,0.7
			c1.1,0.5,2.1,1,2.8,1.7c1-0.7,2.2-1.3,3.5-1.7s2.6-0.6,3.7-0.6c2,0,3.7,0.3,5,0.8c1.3,0.6,2.3,1.4,3.1,2.4s1.3,2.2,1.6,3.6
			s0.4,3,0.4,4.7v14.3h-7.2V20.4c0-2.3-0.3-3.9-0.9-4.9c-0.6-1-1.6-1.4-3-1.4c-0.4,0-0.9,0.1-1.6,0.3s-1.3,0.4-1.7,0.7
			c0.2,0.7,0.4,1.5,0.4,2.3c0.1,0.8,0.1,1.7,0.1,2.6v13.8h-7.2V20.4H185.4z"/>
		<path class="st1" d="M221.4,28.6c1.3,0,2.2-0.1,2.8-0.4c0.5-0.3,0.8-0.8,0.8-1.5c0-0.6-0.4-1.1-1.1-1.5s-1.8-0.9-3.2-1.5
			c-1.1-0.4-2.1-0.8-3-1.3c-0.9-0.4-1.7-1-2.3-1.6s-1.1-1.4-1.5-2.2c-0.4-0.9-0.5-1.9-0.5-3.1c0-2.4,0.9-4.2,2.6-5.6
			c1.8-1.4,4.2-2.1,7.2-2.1c1.5,0,3,0.1,4.4,0.4s2.5,0.6,3.4,0.9l-1.2,5.6c-0.8-0.3-1.7-0.5-2.7-0.8c-1-0.2-2.1-0.3-3.3-0.3
			c-2.2,0-3.4,0.6-3.4,1.9c0,0.3,0,0.5,0.1,0.8c0.1,0.2,0.3,0.4,0.6,0.6s0.7,0.4,1.2,0.7c0.5,0.2,1.1,0.5,1.9,0.8
			c1.6,0.6,2.9,1.2,3.9,1.7c1,0.6,1.8,1.2,2.4,1.8c0.6,0.7,1,1.4,1.2,2.2c0.2,0.8,0.4,1.7,0.4,2.8c0,2.5-0.9,4.4-2.8,5.7
			c-1.9,1.3-4.5,1.9-7.9,1.9c-2.2,0-4.1-0.2-5.6-0.6c-1.5-0.4-2.5-0.7-3.1-1l1.2-5.8c1.2,0.5,2.5,0.9,3.7,1.1
			C218.9,28.5,220.1,28.6,221.4,28.6z"/>
	</g>
</g>
</svg>
