<?xml version="1.0" encoding="utf-8"?>
<!-- Generator: Adobe Illustrator 19.0.0, SVG Export Plug-In . SVG Version: 6.00 Build 0)  -->
<svg version="1.1" id="Слой_1" xmlns="http://www.w3.org/2000/svg" xmlns:xlink="http://www.w3.org/1999/xlink" x="0px" y="0px"
	 viewBox="0 0 100 100" style="enable-background:new 0 0 100 100;" xml:space="preserve">
<style type="text/css">
	.st0{fill:none;stroke:#FFFFFF;stroke-linecap:round;stroke-linejoin:round;stroke-miterlimit:10;}
</style>
<g id="XMLID_113_">
	<circle id="XMLID_141_" class="st0" cx="49.2" cy="28.2" r="27.2"/>
	<polyline id="XMLID_139_" class="st0" points="45.3,55.3 45.3,65.2 53.2,65.2 53.2,55.3 	"/>
	<g id="XMLID_135_">
		<rect id="XMLID_138_" x="34.8" y="25" class="st0" width="9.6" height="13"/>
		<rect id="XMLID_137_" x="44.4" y="18.4" class="st0" width="9.6" height="19.5"/>
		<rect id="XMLID_136_" x="54" y="25" class="st0" width="9.6" height="13"/>
	</g>
	<g id="XMLID_128_">
		<line id="XMLID_134_" class="st0" x1="18.6" y1="75.2" x2="13.7" y2="80.4"/>
		<line id="XMLID_133_" class="st0" x1="28" y1="80.4" x2="23.1" y2="75.2"/>
		<line id="XMLID_132_" class="st0" x1="42.3" y1="73.6" x2="32.6" y2="80.4"/>
		<circle id="XMLID_131_" class="st0" cx="11.4" cy="82.8" r="3.3"/>
		<circle id="XMLID_130_" class="st0" cx="20.9" cy="72.9" r="3.3"/>
		<circle id="XMLID_129_" class="st0" cx="30.3" cy="82.8" r="3.3"/>
	</g>
	<g id="XMLID_125_">
		<path id="XMLID_127_" class="st0" d="M56.2,86.7V67.7c0-1.4-1.1-2.5-2.5-2.5h-8.8c-1.4,0-2.5,1.1-2.5,2.5v18.9"/>
		<path id="XMLID_126_" class="st0" d="M42.3,86.7v7.8c0,1.4,1.1,2.5,2.5,2.5h8.8c1.4,0,2.5-1.1,2.5-2.5v-7.8"/>
	</g>
	<g id="XMLID_115_">
		<line id="XMLID_124_" class="st0" x1="79.9" y1="75.2" x2="84.8" y2="80.4"/>
		<line id="XMLID_123_" class="st0" x1="70.4" y1="80.4" x2="75.3" y2="75.2"/>
		<line id="XMLID_121_" class="st0" x1="56.2" y1="73.6" x2="65.9" y2="80.4"/>
		<circle id="XMLID_120_" class="st0" cx="87.1" cy="82.8" r="3.3"/>
		<circle id="XMLID_117_" class="st0" cx="77.6" cy="72.9" r="3.3"/>
		<circle id="XMLID_116_" class="st0" cx="68.1" cy="82.8" r="3.3"/>
	</g>
</g>
</svg>
