<?xml version="1.0" encoding="iso-8859-1"?>
<!-- Generator: Adobe Illustrator 19.0.0, SVG Export Plug-In . SVG Version: 6.00 Build 0)  -->
<svg version="1.1" id="Capa_1" xmlns="http://www.w3.org/2000/svg" xmlns:xlink="http://www.w3.org/1999/xlink" x="0px" y="0px"
	 viewBox="0 0 512 512" style="enable-background:new 0 0 512 512;" xml:space="preserve">
<g>
	<g>
		<path d="M467,0H45C20.187,0,0,20.187,0,45v362c0,24.813,20.187,45,45,45h135v30h-45c-8.284,0-15,6.716-15,15s6.716,15,15,15h241
			c8.284,0,15-6.716,15-15s-6.716-15-15-15h-45v-30h136c24.813,0,45-20.187,45-45V45C512,20.187,491.813,0,467,0z M301,482h-91v-30
			h91V482z M482,407c0,8.271-6.729,15-15,15H45c-8.271,0-15-6.729-15-15v-15h452V407z M482,362H30V45c0-8.271,6.729-15,15-15h422
			c8.271,0,15,6.729,15,15V362z"/>
	</g>
</g>
<g>
	<g>
		<path d="M256,120c-8.284,0-15,6.716-15,15v62c0,8.284,6.716,15,15,15s15-6.716,15-15v-62C271,126.716,264.284,120,256,120z"/>
	</g>
</g>
<g>
	<g>
		<path d="M256,60c-74.469,0-136,62.167-136,137c0,74.439,61.009,135,136,135c74.439,0,135-60.561,135-135
			C391,122.585,330.852,60,256,60z M256,302c-58.449,0-106-47.103-106-105c0-58,48.542-107,106-107c57.897,0,105,48,105,107
			C361,254.897,313.897,302,256,302z"/>
	</g>
</g>
<g>
	<g>
		<path d="M255.85,242c-8.354,0-15.15,6.796-15.15,15.15c0,8.354,6.797,15.15,15.15,15.15c8.354,0,15.15-6.796,15.15-15.15
			S264.204,242,255.85,242z"/>
	</g>
</g>
<g>
</g>
<g>
</g>
<g>
</g>
<g>
</g>
<g>
</g>
<g>
</g>
<g>
</g>
<g>
</g>
<g>
</g>
<g>
</g>
<g>
</g>
<g>
</g>
<g>
</g>
<g>
</g>
<g>
</g>
</svg>
