<?xml version="1.0" encoding="utf-8"?>
<!-- Generator: Adobe Illustrator 19.0.0, SVG Export Plug-In . SVG Version: 6.00 Build 0)  -->
<svg version="1.1" id="Слой_1" xmlns="http://www.w3.org/2000/svg" xmlns:xlink="http://www.w3.org/1999/xlink" x="0px" y="0px"
	 viewBox="0 0 100 100" style="enable-background:new 0 0 100 100;" xml:space="preserve">
<style type="text/css">
	.st0{fill:none;stroke:#FFFFFF;stroke-linecap:round;stroke-linejoin:round;stroke-miterlimit:10;}
</style>
<g id="dorogoe">
	<g id="XMLID_33_">
		<rect id="XMLID_13_" x="51.9" y="76.1" class="st0" width="40.3" height="9.3"/>
		<rect id="XMLID_11_" x="44.1" y="85.4" class="st0" width="40.3" height="9.3"/>
		<rect id="XMLID_6_" x="45.7" y="66.8" class="st0" width="40.3" height="9.3"/>
		<rect id="XMLID_5_" x="48.8" y="57.5" class="st0" width="40.3" height="9.3"/>
	</g>
	<path id="XMLID_30_" class="st0" d="M80.5,57.5C73.9,42.4,56.7,28,56.7,28h-4h-7h-14c0,0-26.4,22.1-26.4,40.3l0,0
		c0,18.2,8.8,26.4,27,26.4h2.6h9.6"/>
	<path id="XMLID_3_" class="st0" d="M31.7,28c0,0-14.1-18.6-7.6-23c2.5-1.7,6.2,6,9.1,6c3,0,4.3-6.3,9.3-6.3c4.6,0,6.3,4.7,9.3,4.7
		c5.3,0,5.7-4.7,10.8-4.7c6,0,3.7,14-6.2,23.3"/>
</g>
</svg>
