<?xml version="1.0" encoding="utf-8"?>
<!-- Generator: Adobe Illustrator 19.0.0, SVG Export Plug-In . SVG Version: 6.00 Build 0)  -->
<svg version="1.1" id="Слой_1" xmlns="http://www.w3.org/2000/svg" xmlns:xlink="http://www.w3.org/1999/xlink" x="0px" y="0px"
	 viewBox="0 0 100 100" style="enable-background:new 0 0 100 100;" xml:space="preserve">
<style type="text/css">
	.st0{fill:none;stroke:#FFFFFF;stroke-linecap:round;stroke-linejoin:round;stroke-miterlimit:10;}
</style>
<g id="modernizacia">
	<g id="XMLID_77_">
		<path id="XMLID_81_" class="st0" d="M48.5,53.3v7.1c0,3.4-2.7,6.1-6.1,6.1H18.8c-3.4,0-6.1,2.7-6.1,6.1v6.3"/>
		<path id="XMLID_80_" class="st0" d="M48.5,53.3v7.1c0,3.4,2.7,6.1,6.1,6.1h23.6c3.4,0,6.1,2.7,6.1,6.1v6.3"/>
		<path id="XMLID_79_" class="st0" d="M59.6,66.5c3,0,5.4,2.4,5.4,5.4v7.1"/>
		<path id="XMLID_78_" class="st0" d="M37.5,66.5c-3,0-5.4,2.4-5.4,5.4v7.1"/>
	</g>
	<path id="XMLID_62_" class="st0" d="M67.6,84.5h-5.4c-1.9,0-3.4,1.5-3.4,3.4v5.4c0,1.9,1.5,3.4,3.4,3.4h5.4c1.9,0,3.4-1.5,3.4-3.4
		v-5.4C71,86,69.5,84.5,67.6,84.5z"/>
	<path id="XMLID_59_" class="st0" d="M87.1,84.5h-5.4c-1.9,0-3.4,1.5-3.4,3.4v5.4c0,1.9,1.5,3.4,3.4,3.4h5.4c1.9,0,3.4-1.5,3.4-3.4
		v-5.4C90.5,86,89,84.5,87.1,84.5z"/>
	<path id="XMLID_56_" class="st0" d="M15.4,84.5H10c-1.9,0-3.4,1.5-3.4,3.4v5.4c0,1.9,1.5,3.4,3.4,3.4h5.4c1.9,0,3.4-1.5,3.4-3.4
		v-5.4C18.8,86,17.2,84.5,15.4,84.5z"/>
	<path id="XMLID_55_" class="st0" d="M34.8,84.5h-5.4c-1.9,0-3.4,1.5-3.4,3.4v5.4c0,1.9,1.5,3.4,3.4,3.4h5.4c1.9,0,3.4-1.5,3.4-3.4
		v-5.4C38.2,86,36.7,84.5,34.8,84.5z"/>
	<g id="XMLID_31_">
		<g id="XMLID_34_">
			<line id="XMLID_101_" class="st0" x1="25.4" y1="25.8" x2="71.6" y2="25.8"/>
			<line id="XMLID_100_" class="st0" x1="48.5" y1="2.7" x2="48.5" y2="25.8"/>
			<path id="XMLID_99_" class="st0" d="M25.4,25.8c0-12.8,10.3-23.1,23.1-23.1c12.8,0,23.1,10.4,23.1,23.2"/>
			<path id="XMLID_98_" class="st0" d="M48.5,2.7c0,0-12.4,4.9-12.4,23.1"/>
			<path id="XMLID_97_" class="st0" d="M36.1,25.8"/>
			<path id="XMLID_96_" class="st0" d="M48.5,2.7c0,0,12.4,4.9,12.4,23.1"/>
			<path id="XMLID_95_" class="st0" d="M60.9,25.8"/>
			<path id="XMLID_94_" class="st0" d="M48.5,15.9c-12.8,0-16.1-6.7-16.1-6.7"/>
			<path id="XMLID_93_" class="st0" d="M64.6,9.2c0,0-3.3,6.7-16.1,6.7"/>
			<path id="XMLID_92_" class="st0" d="M58.5,13.9"/>
			<line id="XMLID_91_" class="st0" x1="48.5" y1="48.9" x2="48.5" y2="25.8"/>
			<path id="XMLID_90_" class="st0" d="M71.6,25.8c0,12.8-10.3,23.1-23.1,23.1c-12.8,0-23.1-10.3-23.1-23.1"/>
			<path id="XMLID_85_" class="st0" d="M48.5,48.9c0,0,12.4-4.9,12.4-23.1"/>
			<path id="XMLID_84_" class="st0" d="M60.9,25.8"/>
			<path id="XMLID_83_" class="st0" d="M48.5,48.9c0,0-12.4-4.9-12.4-23.1"/>
			<path id="XMLID_82_" class="st0" d="M36.1,25.8"/>
			<path id="XMLID_54_" class="st0" d="M64.6,42.4c0,0-3.3-6.7-16.1-6.7"/>
			<path id="XMLID_53_" class="st0" d="M32.5,42.4c0,0,3.3-6.7,16.1-6.7"/>
			<path id="XMLID_52_" class="st0" d="M38.5,37.8"/>
		</g>
	</g>
</g>
</svg>
