<?xml version="1.0" encoding="utf-8"?>
<!-- Generator: Adobe Illustrator 19.0.0, SVG Export Plug-In . SVG Version: 6.00 Build 0)  -->
<svg version="1.1" id="Слой_1" xmlns="http://www.w3.org/2000/svg" xmlns:xlink="http://www.w3.org/1999/xlink" x="0px" y="0px"
	 viewBox="0 0 100 100" style="enable-background:new 0 0 100 100;" xml:space="preserve">
<style type="text/css">
	.st0{fill:none;stroke:#FFFFFF;stroke-linecap:round;stroke-linejoin:round;stroke-miterlimit:10;}
</style>
<g id="XMLID_8_">
	<circle id="XMLID_21_" class="st0" cx="48.5" cy="41.6" r="14.5"/>
	<path id="XMLID_18_" class="st0" d="M48.5,56.1c0,0-13.8,0.7-25-14.5c11.2-15.2,25-14.5,25-14.5"/>
	<path id="XMLID_17_" class="st0" d="M48.5,56.1c0,0,13.8,0.7,25-14.5c-11.2-15.2-25-14.5-25-14.5"/>
	<line id="XMLID_10_" class="st0" x1="29.7" y1="60.5" x2="67" y2="23.1"/>
	<path id="XMLID_58_" class="st0" d="M89.3,77H7.7c-2.3,0-4.2-1.9-4.2-4.2V10.5c0-2.3,1.9-4.2,4.2-4.2h81.5c2.3,0,4.2,1.9,4.2,4.2
		v62.2C93.5,75.1,91.6,77,89.3,77z"/>
	<rect id="XMLID_57_" x="9.6" y="12.6" class="st0" width="77.7" height="55.4"/>
	<g id="XMLID_50_">
		<path id="XMLID_26_" class="st0" d="M45.3,87.3c-2.2,0-4-4.6-4-10.2V77"/>
		<path id="XMLID_9_" class="st0" d="M55.7,77v0.1c0,5.7-1.8,10.2-4,10.2"/>
	</g>
	<path id="XMLID_45_" class="st0" d="M75.9,93.1H21.1c-1.5,0-2.7-1.8-2.7-4v-1.8h60.2v1.8C78.6,91.3,77.4,93.1,75.9,93.1z"/>
	<circle id="XMLID_7_" class="st0" cx="48.4" cy="41.8" r="6.6"/>
</g>
</svg>
