<?xml version="1.0" encoding="utf-8"?>
<!-- Generator: Adobe Illustrator 19.0.0, SVG Export Plug-In . SVG Version: 6.00 Build 0)  -->
<svg version="1.1" id="Слой_1" xmlns="http://www.w3.org/2000/svg" xmlns:xlink="http://www.w3.org/1999/xlink" x="0px" y="0px"
	 viewBox="0 0 100 100" style="enable-background:new 0 0 100 100;" xml:space="preserve">
<style type="text/css">
	.st0{fill:none;stroke:#FFFFFF;stroke-linecap:round;stroke-linejoin:round;stroke-miterlimit:10;}
</style>
<g id="XMLID_1_">
	<path id="XMLID_89_" class="st0" d="M23,58.8l-5.7,6.1c0,0-1.6,1-3.4-0.8c-2.2-2-1.3-3.8-1.3-3.8l1-1.1"/>
	<path id="XMLID_88_" class="st0" d="M43.6,78l-5.7,6.1c0,0-0.8,1.7,1,3.4c2.2,2,3.9,1,3.9,1l1-1.1"/>
	<polyline id="XMLID_87_" class="st0" points="42.9,41 20.5,44.2 6.2,59.6 26.6,58.6 	"/>
	<polyline id="XMLID_86_" class="st0" points="59.9,56.8 58.4,79.4 44.1,94.8 43.5,74.4 	"/>
	<polygon id="XMLID_76_" class="st0" points="43.5,74.4 26.6,58.6 42.5,41.5 68,14.1 85,29.8 	"/>
	<circle id="XMLID_75_" class="st0" cx="68.3" cy="30.7" r="6.1"/>
	<circle id="XMLID_74_" class="st0" cx="56.8" cy="43.1" r="6.1"/>
	<line id="XMLID_73_" class="st0" x1="30.4" y1="62.6" x2="20.7" y2="73"/>
	<line id="XMLID_72_" class="st0" x1="34.9" y1="66.7" x2="22.8" y2="79.7"/>
	<line id="XMLID_71_" class="st0" x1="41.3" y1="72.7" x2="36.1" y2="78.3"/>
	<line id="XMLID_70_" class="st0" x1="8.8" y1="68.3" x2="3.5" y2="74"/>
	<line id="XMLID_69_" class="st0" x1="31.5" y1="82.7" x2="24.5" y2="90.3"/>
	<path id="XMLID_68_" class="st0" d="M71.3,11.5C77.3,5.1,85.6,3.2,90,7.3c4.4,4.1,3.2,12.6-2.7,19"/>
	<line id="XMLID_67_" class="st0" x1="72.2" y1="10.6" x2="88.2" y2="25.4"/>
	<line id="XMLID_66_" class="st0" x1="71.5" y1="11.2" x2="68.5" y2="14.5"/>
	<line id="XMLID_65_" class="st0" x1="87.7" y1="25.8" x2="84.4" y2="29.3"/>
	<line id="XMLID_64_" class="st0" x1="38.8" y1="70" x2="36" y2="73"/>
	<line id="XMLID_63_" class="st0" x1="16.8" y1="77.4" x2="14" y2="80.4"/>
	<line id="XMLID_61_" class="st0" x1="34.3" y1="92.2" x2="31.5" y2="95.2"/>
	<path id="XMLID_60_" class="st0" d="M50,57c0,0,1-2-1.7-4.5c-3.4-3.2-5.1-1.8-5.1-1.8L31.5,63.3l6.8,6.3L50,57z"/>
</g>
</svg>
